<svg aria-hidden="true" style="width:0;height:0;position:absolute;overflow:hidden" xmlns="http://www.w3.org/2000/svg"><defs><symbol id="cross_icon" viewBox="0 0 32 32"><path d="M23.884 6.706 16 14.59 8.116 6.706a.996.996 0 0 0-1.672.736c0 .26.099.497.262.674l-.001-.001 7.88 7.884-7.882 7.882a.998.998 0 0 0 1.41 1.412l7.886-7.882 7.884 7.884a.996.996 0 0 0 1.672-.736.992.992 0 0 0-.262-.674l.001.001-7.884-7.884 7.884-7.886a.998.998 0 0 0-1.41-1.412v.002z"/></symbol><symbol id="arrow" viewBox="0 0 82 32"><path d="M81.414 17.414c.362-.362.586-.862.586-1.414s-.224-1.052-.586-1.414L68.686 1.858a2 2 0 1 0-2.829 2.827l.001.001L77.172 16 65.858 27.314a2 2 0 0 0 2.829 2.827l-.001.001 12.728-12.728zM0 18h80v-4H0v4z"/></symbol><symbol id="cow_icon" viewBox="0 0 32 32"><path d="M8.922 4.618c-.188.163-.725 1.283-.918 1.894-.229.757-.307 1.325-.276 2.109.042 1.12.323 1.97.943 2.857.162.233.292.433.292.449 0 .011-.099.022-.224.022-.538 0-1.544.179-2.315.411-1.225.369-1.944 1.012-1.944 1.732 0 .255.229.687.474.909.474.428 1.512.834 2.627 1.028.386.07 1.533.189 1.788.195.047 0 .063.25.063 1.066 0 .703.026 1.25.078 1.585.188 1.201.771 2.472 1.542 3.371l.266.308-.177.287c-.26.406-.36.714-.39 1.174-.079 1.104.609 2.083 1.939 2.771 2.532 1.315 6.468.801 7.944-1.039.719-.899.803-1.926.234-2.857l-.177-.287.318-.384a6.655 6.655 0 0 0 1.272-2.332c.244-.768.339-1.51.339-2.684 0-.535.015-.979.042-.979a22.66 22.66 0 0 0 1.757-.195c1.121-.195 2.138-.595 2.627-1.028.245-.222.474-.655.474-.909 0-.801-.813-1.45-2.325-1.84-.495-.13-1.428-.287-1.882-.314l-.214-.017.235-.324c.292-.395.657-1.163.797-1.667.396-1.455.151-3.149-.699-4.767-.354-.671-.599-.828-.886-.563-.109.104-.156.244-.26.753-.323 1.618-.923 2.9-1.798 3.846l-.386.422h-8.246l-.344-.373c-.854-.941-1.475-2.272-1.798-3.896-.104-.509-.151-.649-.26-.752-.172-.157-.339-.152-.531.016zm.666 3.209a8.636 8.636 0 0 0 1.027 1.699l.323.417-.339.254c-.318.243-.615.59-.845.986l-.099.178-.25-.34c-.855-1.18-1.069-2.624-.615-4.124.219-.724.214-.719.412-.092.094.303.271.763.386 1.023zm13.568-1.142c.189.524.298 1.129.298 1.76v.067-.003c0 .984-.26 1.818-.808 2.564l-.245.335-.182-.308a3.267 3.267 0 0 0-.903-.994l-.01-.007a1.26 1.26 0 0 1-.25-.195c0-.016.099-.141.224-.276.579-.644 1.199-1.802 1.507-2.797.093-.308.188-.563.203-.563s.094.19.166.417zm-2.663 3.956c.579.243 1.131.941 1.22 1.531.047.325.156.531.297.563.063.01.495.049.959.081 1.647.109 2.945.46 3.498.941.255.227.229.417-.078.65-.615.465-1.944.817-3.3.877-.897.038-1.084.064-1.204.189-.089.092-.099.189-.099 1.169 0 1.326-.068 2.089-.235 2.705-.234.838-.698 1.732-1.24 2.365l-.224.26-.464-.276a5.646 5.646 0 0 0-1.681-.69l-.039-.008c-1.976-.471-4.16-.184-5.629.741l-.339.216-.214-.254a7.865 7.865 0 0 1-.933-1.482c-.401-.931-.521-1.688-.521-3.355 0-1.618.083-1.499-1.116-1.564-1.533-.081-2.701-.357-3.436-.822-.542-.346-.453-.655.303-1.018.724-.352 1.72-.563 3.101-.649 1.074-.07 1.1-.086 1.199-.606.146-.785.724-1.434 1.455-1.64.182-.054 1.204-.065 4.332-.06l4.092.011.297.125zm-2.929 11.2c1.277.314 2.231.898 2.643 1.623.099.168.141.34.161.606.021.33.006.411-.12.682-.579 1.229-2.705 2.04-4.868 1.856-2.601-.216-4.311-1.667-3.638-3.09.365-.768 1.6-1.504 2.903-1.72.214-.032.428-.07.469-.081s.511-.011 1.043 0c.724.017 1.073.049 1.407.125z"/><path d="M12.393 13.351c-.323.109-.542.25-.834.541-.256.243-.276.53-.063.703.198.162.386.141.625-.07.303-.265.538-.374.829-.374.292-.005.516.098.829.374.239.211.427.232.625.07.104-.087.136-.157.136-.32 0-.167-.036-.243-.219-.427-.516-.519-1.283-.719-1.929-.498zm6.077-.006c-.333.125-.761.406-.932.617-.167.206-.173.438 0 .612.172.184.38.173.63-.033.615-.509 1.074-.525 1.642-.054.146.125.312.222.365.222.255 0 .464-.227.464-.498 0-.173-.433-.573-.824-.763-.433-.211-.948-.249-1.345-.102zm-5.321 10.016c-.151.146-.204.356-.125.525.058.134.146.189.506.287.162.043.23.097.287.232.073.179.078.179.48.195l.401.017v-.152c-.005-.216-.125-.53-.282-.746-.182-.25-.5-.412-.86-.444-.245-.021-.307-.011-.406.087zm4.978-.038c-.26.07-.636.422-.74.698a1.837 1.837 0 0 0-.099.487v.006c-.01.232.01.287.136.4.307.271.714.06.714-.373 0-.211.156-.357.433-.411.292-.054.396-.173.401-.449 0-.362-.323-.503-.845-.357z"/></symbol><symbol id="weight_icon" viewBox="0 0 32 32"><path d="M14.688 4.874c-2.861.424-5.218 2.013-6.085 4.093-.276.657-.351 1.061-.351 1.853.005.585.026.802.117 1.118.186.621.319.936.595 1.382l.256.413-.288.352c-2.271 2.826-2.521 6.8-.627 9.931.707 1.175 1.862 2.329 2.989 3.002l.335.196 9.175-.077.218-.119c.761-.429 1.835-1.387 2.436-2.163a9.003 9.003 0 0 0 1.737-3.993l.007-.053c.085-.533.085-2.112-.005-2.614-.271-1.547-.851-2.872-1.766-4.047a4.693 4.693 0 0 1-.314-.424c0-.01.096-.171.207-.352.255-.406.467-.875.612-1.373l.01-.04c.143-.518.143-1.811 0-2.329-.511-1.837-2.042-3.369-4.207-4.212-.607-.238-1.644-.492-2.314-.574-.622-.072-2.159-.058-2.739.031zm3.238.843c2.84.554 4.92 2.292 5.303 4.435.085.481.032 1.299-.111 1.754a5.58 5.58 0 0 1-.723 1.412c-.128.182-.234.388-.234.456s.111.243.271.419c1.329 1.475 2.031 3.322 2.031 5.32-.005 2.272-.877 4.264-2.558 5.827a8.892 8.892 0 0 1-.915.75l-.399.269-8.792.036-.34-.218c-1.234-.801-2.346-2.126-2.963-3.534a7.945 7.945 0 0 1-.223-5.697c.335-.963.782-1.749 1.462-2.577.277-.332.404-.528.404-.621 0-.078-.138-.332-.319-.595-.638-.927-.899-1.956-.744-2.929.16-.983.606-1.791 1.431-2.592 1.074-1.041 2.574-1.73 4.334-1.988.728-.109 2.34-.067 3.085.072z"/><path d="M14.927 6.628c-2.18.357-3.888 1.568-4.446 3.157-.128.357-.149.497-.149 1.009s.021.652.149 1.009c.079.228.228.544.33.704.276.445.399.461.947.129a8.462 8.462 0 0 1 2.683-1.062l.056-.01c.659-.134 1.925-.186 2.643-.103a8.737 8.737 0 0 1 3.313 1.107c.276.16.559.294.627.294.404 0 .92-1.164.92-2.069 0-2.013-1.925-3.736-4.653-4.166-.58-.093-1.862-.093-2.42 0zm2.633.828c.915.196 1.755.57 2.388 1.061.851.657 1.308 1.573 1.233 2.458-.026.352-.159.828-.239.88-.022.01-.32-.114-.66-.279a10.17 10.17 0 0 0-2.254-.779l-.07-.013c-.495-.103-.702-.119-1.808-.113-1.091 0-1.319.015-1.792.113a9.613 9.613 0 0 0-2.245.766c-.792.378-.75.383-.893-.083-.186-.605-.069-1.407.292-2.013.192-.321.718-.854 1.101-1.117.729-.502 1.367-.73 2.739-.979.282-.051 1.846.021 2.207.099zm-.867 6.675c-.149.187-.149.363.005.513.101.099.202.124.57.15a4.673 4.673 0 0 1 2.027.623l-.022-.012c.436.259 1.101.885 1.399 1.335.442.646.744 1.573.744 2.257 0 .238.022.31.133.413.17.171.394.171.559 0 .117-.119.122-.15.09-.657-.149-2.505-2.292-4.595-4.856-4.736l-.532-.031-.116.145z"/></symbol><symbol id="icecream_icon" viewBox="0 0 32 32"><path d="M16.078 4.557c.058.154.174.901.174 1.133 0 .574-.212 1.109-.602 1.528-.323.347-.646.54-1.422.853-.863.352-1.219.564-1.624.964-.41.41-.651.858-.737 1.383-.096.574 0 .978.294 1.21l.149.116-.236.149c-.477.313-1.345 1.051-1.494 1.277-.289.434-.26.839.067 1.003l.154.077-.174.164c-.26.246-.313.415-.275.858.024.294.014.453-.053.694-.082.313-.082.318.024.54.106.217.405.492.675.607.13.058.135.077.164.521.014.256.039 1.07.058 1.812.014.742.048 1.422.077 1.504a.57.57 0 0 0 .198.26c.28.193.472.4.598.641.14.275.294.95.762 3.282l.328 1.639.203.193c.386.381 1.123.554 2.338.554 1.219 0 1.947-.169 2.333-.549l.207-.198.299-1.518c.66-3.321.718-3.504 1.234-3.914.159-.13.313-.289.342-.362.034-.082.068-.713.092-1.668.019-.848.048-1.687.068-1.865l.029-.323.313-.236c.395-.304.549-.578.549-1.003-.005-.501-.333-1.051-.93-1.542l-.284-.231.14-.198c.583-.805.217-1.918-.868-2.661l-.328-.227.12-.125c.535-.574.622-2.285.174-3.475-.27-.709-.887-1.48-1.644-2.049-.371-.28-1.393-.897-1.485-.897-.019 0-.019.034-.005.077zm1.388 1.682c.256.251.564.593.684.766.718 1.003.901 2.261.468 3.186-.174.376-.694.935-1.176 1.268-.737.511-2.396 1.369-3.552 1.841-1.861.757-2.94.901-3.066.405-.048-.188.092-.337.684-.733.535-.366 2.935-2.15 2.979-2.222.014-.019-.231.092-.54.246-1.046.53-1.542.429-1.518-.308.014-.535.4-1.142.935-1.489.135-.087.554-.28.94-.434 1.268-.511 1.653-.771 2.082-1.412.256-.381.535-1.085.554-1.383.005-.106.024-.188.039-.188s.231.207.487.458zm1.316 5.476c.352.198.718.535.877.8.28.477.135.954-.468 1.562-.656.665-1.774 1.301-3.003 1.706-1.133.371-2.217.545-3.769.598l-.964.034.627.039c.81.053 2.376.005 2.984-.092 1.615-.256 2.988-.766 3.972-1.47.222-.159.453-.289.516-.289.159 0 .853.665.993.945a.735.735 0 0 1 .082.429c-.072.641-.853.983-2.738 1.21-2.304.275-5.317.005-6.604-.588-.607-.28-.709-.439-.554-.863.048-.135.058-.294.039-.521-.024-.299-.019-.337.087-.448.241-.26.646-.41 2.13-.786a20.534 20.534 0 0 0 1.567-.472c.819-.299 2.357-1.075 3.07-1.552.67-.443.766-.463 1.157-.241zm-6.401 5.9c1.012.294 1.909.381 3.576.347 1.253-.024 2.024-.101 3.138-.299.227-.039.424-.072.448-.072.053 0 .039 1.851-.019 2.338-.063.516-.202.916-.352 1.012-.154.101-.925.207-1.957.265-2.116.116-4.29 0-4.965-.27-.366-.149-.405-.342-.41-2.13 0-1.191.01-1.355.072-1.33.039.014.251.077.468.14zm1.142 4.097c.347.043.723.087.839.101l.207.024-.183.202c-.236.256-.598.766-.728 1.027-.149.299-.198.318-.419.198l-.188-.106-.106-.656c-.058-.357-.12-.699-.135-.757-.043-.125-.087-.125.713-.034zm5.139-.053c0 .01-.024.135-.048.275-.029.145-.149.93-.27 1.75-.246 1.711-.41 2.516-.559 2.786-.207.361-.704.574-1.509.641-.313.024-1.258-.039-1.311-.087-.039-.043.791-1.07.921-1.138.12-.068.154-.058.564.154.477.251.718.289.718.13s-.125-.313-.434-.525c-.284-.202-.386-.318-.386-.453 0-.039.14-.255.308-.482s.415-.588.54-.805l.236-.39.217.029c.439.063.554.058.54-.039a1.175 1.175 0 0 0-.183-.304c-.092-.12-.164-.241-.164-.265 0-.092.448-.935.593-1.113.125-.154.227-.231.227-.164zm-3.013.385c.241.159 1.147.945 1.205 1.041.024.043-.906 1.499-1.089 1.706-.019.024-.12-.024-.222-.101a15.48 15.48 0 0 0-.839-.578l-.651-.429.39-.66c.694-1.162.68-1.142.829-1.142.077 0 .246.072.376.164zm1.827.174c-.169.207-.308.337-.366.337-.125 0-.328-.111-.67-.362l-.284-.207.569-.034c.308-.014.607-.034.66-.043.386-.063.386-.058.092.308zm-3.644 2.318c.443.174 1.195.583 1.412.766.154.125.154.135.092.289a4.977 4.977 0 0 1-.299.516c-.125.193-.27.434-.323.535-.154.299-.202.323-.521.236-.342-.101-.525-.275-.622-.588-.13-.439-.337-1.677-.313-1.87.01-.072.212-.029.574.116z"/></symbol><symbol id="fcebook_icon" viewBox="0 0 32 32"><path d="M20.446 15.982h-2.61V25.6h-3.955v-9.618H12v-3.38h1.881v-2.187c0-1.564.739-4.014 3.99-4.014l2.929.012v3.281h-2.125c-.349 0-.839.175-.839.921v1.989h2.955l-.346 3.377z"/></symbol><symbol id="git_icon" viewBox="0 0 32 32"><path d="M16 6.588c-5.169 0-9.412 4.242-9.412 9.412 0 4.411 3.095 8.419 7.206 9.412v-3.114a2.307 2.307 0 0 1-1.197-.03c-.556-.164-1.008-.535-1.344-1.1-.214-.361-.593-.752-.988-.723l-.097-1.099c.855-.073 1.595.521 2.034 1.259.195.328.419.52.708.605.278.082.578.043.926-.08.088-.698.407-.959.648-1.326v-.001c-2.451-.366-3.428-1.666-3.816-2.693-.514-1.363-.238-3.066.671-4.142.018-.021.05-.076.037-.114-.417-1.258.091-2.299.11-2.41.481.142.559-.143 2.089.786l.264.159c.111.066.076.028.186.02A8.031 8.031 0 0 1 16 11.131a8.016 8.016 0 0 1 2.002.285l.086.009c-.007-.001.023-.005.075-.036 1.911-1.157 1.842-.779 2.355-.946.019.111.519 1.169.107 2.411-.056.171 1.657 1.739.708 4.256-.388 1.027-1.365 2.328-3.816 2.693v.001c.314.479.692.734.69 1.722v3.887c4.111-.993 7.206-5 7.206-9.412 0-5.169-4.242-9.412-9.412-9.412z"/></symbol><symbol id="telegram_icon" viewBox="0 0 32 32"><path d="m12.867 18.375-.318 4.169c.454 0 .651-.182.887-.401l2.13-1.9 4.415 3.017c.81.421 1.38.199 1.599-.695l2.898-12.672.001-.001c.257-1.117-.433-1.554-1.222-1.28L6.225 14.698c-1.162.421-1.145 1.026-.198 1.3l4.355 1.264 10.115-5.907c.476-.294.909-.131.553.163l-8.182 6.857z"/></symbol><symbol id="mobile_menu_icon" viewBox="0 0 32 32"><path d="M26.733 15H5.267c-.7 0-1.267.425-1.267.95v.1c0 .525.567.95 1.267.95h21.466c.7 0 1.267-.425 1.267-.95v-.1c0-.525-.567-.95-1.267-.95zm0 6H5.267c-.7 0-1.267.425-1.267.95v.1c0 .525.567.95 1.267.95h21.466c.7 0 1.267-.425 1.267-.95v-.1c0-.525-.567-.95-1.267-.95zm0-12H5.267C4.567 9 4 9.425 4 9.95v.1c0 .525.567.95 1.267.95h21.466c.7 0 1.267-.425 1.267-.95v-.1c0-.525-.567-.95-1.267-.95z"/></symbol><symbol id="button-arrow" viewBox="0 0 32 32"><path d="M10.586 3.272a2 2 0 0 0 0 2.828l9.9 9.9-9.9 9.9a1.998 1.998 0 0 0 .025 2.804 2.001 2.001 0 0 0 2.804.025l11.314-11.314a2 2 0 0 0 0-2.828L13.415 3.273a2 2 0 0 0-2.828 0z"/></symbol><symbol id="icon-mobile-menu-close" viewBox="0 0 32 32"><path d="M23.884 6.706 16 14.59 8.116 6.706a.995.995 0 0 0-1.38.031 1 1 0 0 0-.031 1.38l7.88 7.884-7.882 7.882a1.002 1.002 0 0 0-.018 1.427.998.998 0 0 0 1.427-.015l7.886-7.882 7.884 7.884a1 1 0 0 0 1.38-.03 1 1 0 0 0 .03-1.38l-7.884-7.884 7.884-7.886a1.002 1.002 0 0 0 .018-1.427.998.998 0 0 0-1.427.015v.002z"/></symbol><symbol id="icon-mobile-menu-open" viewBox="0 0 32 32"><path d="M26.733 14.667H5.266c-.7 0-1.267.567-1.267 1.267v.133c0 .7.567 1.267 1.267 1.267h21.467c.7 0 1.267-.567 1.267-1.267v-.133c0-.7-.567-1.267-1.267-1.267zm0 6.666H5.266c-.7 0-1.267.567-1.267 1.267v.133c0 .7.567 1.267 1.267 1.267h21.467c.7 0 1.267-.567 1.267-1.267V22.6c0-.7-.567-1.267-1.267-1.267zm0-13.333H5.266c-.7 0-1.267.567-1.267 1.267V9.4c0 .7.567 1.267 1.267 1.267h21.467c.7 0 1.267-.567 1.267-1.267v-.133C28 8.567 27.433 8 26.733 8z"/></symbol><symbol id="icon-buy-now" viewBox="0 0 32 32"><path d="M10.586 3.272a2 2 0 0 0 0 2.828l9.9 9.9-9.9 9.9a1.998 1.998 0 0 0 .025 2.804 2.001 2.001 0 0 0 2.804.025l11.314-11.314a2 2 0 0 0 0-2.828L13.415 3.273a2 2 0 0 0-2.828 0z"/></symbol><symbol id="arrow-up2" viewBox="0 0 32 32"><path d="m27.414 12.586-10-10a2 2 0 0 0-2.828 0l-10 10a2 2 0 1 0 2.828 2.828L14 8.828V28a2 2 0 1 0 4 0V8.828l6.586 6.586c.39.39.902.586 1.414.586s1.024-.195 1.414-.586a2 2 0 0 0 0-2.828z"/></symbol></defs></svg>