<svg xmlns="http://www.w3.org/2000/svg" width="41" height="16" viewBox="0 0 41 16" fill="none">
    <path d="M40.7071 8.70711C41.0976 8.31658 41.0976 7.68342 40.7071 7.29289L34.3431 0.928932C33.9526 0.538408 33.3195 0.538408 32.9289 0.928932C32.5384 1.31946 32.5384 1.95262 32.9289 2.34315L38.5858 8L32.9289 13.6569C32.5384 14.0474 32.5384 14.6805 32.9289 15.0711C33.3195 15.4616 33.9526 15.4616 34.3431 15.0711L40.7071 8.70711ZM0 9H40V7H0V9Z" fill="none"/>
<svg width="12" height="12" viewBox="0 0 12 12" fill="none" xmlns="http://www.w3.org/2000/svg">
<path d="M3.96959 1.22701C3.82899 1.36765 3.75 1.55838 3.75 1.75726C3.75 1.95613 3.82899 2.14686 3.96959 2.28751L7.68209 6.00001L3.96959 9.71251C3.83297 9.85396 3.75738 10.0434 3.75908 10.2401C3.76079 10.4367 3.83967 10.6248 3.97873 10.7639C4.11778 10.9029 4.30589 10.9818 4.50254 10.9835C4.69919 10.9852 4.88864 10.9096 5.03009 10.773L9.27284 6.53026C9.41344 6.38961 9.49243 6.19888 9.49243 6.00001C9.49243 5.80113 9.41344 5.6104 9.27284 5.46976L5.03009 1.22701C4.88944 1.0864 4.69871 1.00742 4.49984 1.00742C4.30097 1.00742 4.11024 1.0864 3.96959 1.22701V1.22701Z" fill="none"/>
</svg>