<svg aria-hidden="true" style="position: absolute; width: 0; height: 0; overflow: hidden;" version="1.1" xmlns="http://www.w3.org/2000/svg" xmlns:xlink="http://www.w3.org/1999/xlink">
<defs>
<symbol id="cross_icon" viewBox="0 0 32 32">
<path d="M23.884 6.706l-7.884 7.884-7.884-7.884c-0.177-0.162-0.414-0.262-0.674-0.262-0.551 0-0.998 0.447-0.998 0.998 0 0.26 0.099 0.497 0.262 0.674l-0.001-0.001 7.88 7.884-7.882 7.882c-0.181 0.181-0.293 0.43-0.293 0.706 0 0.551 0.447 0.998 0.998 0.998 0.275 0 0.524-0.111 0.705-0.292v0l7.886-7.882 7.884 7.884c0.177 0.162 0.414 0.262 0.674 0.262 0.551 0 0.998-0.447 0.998-0.998 0-0.26-0.099-0.497-0.262-0.674l0.001 0.001-7.884-7.884 7.884-7.886c0.181-0.181 0.293-0.43 0.293-0.706 0-0.551-0.447-0.998-0.998-0.998-0.275 0-0.524 0.111-0.705 0.292v0 0.002z"></path>
</symbol>
<symbol id="arrow" viewBox="0 0 82 32">
<path d="M81.414 17.414c0.362-0.362 0.586-0.862 0.586-1.414s-0.224-1.052-0.586-1.414l-12.728-12.728c-0.364-0.377-0.874-0.611-1.439-0.611-1.105 0-2 0.895-2 2 0 0.565 0.234 1.074 0.61 1.438l0.001 0.001 11.314 11.314-11.314 11.314c-0.347 0.359-0.561 0.849-0.561 1.389 0 1.105 0.895 2 2 2 0.54 0 1.030-0.214 1.39-0.562l-0.001 0.001 12.728-12.728zM0 18h80v-4h-80v4z"></path>
</symbol>
<symbol id="cow_icon" viewBox="0 0 32 32">
<path d="M8.922 4.618c-0.188 0.163-0.725 1.283-0.918 1.894-0.229 0.757-0.307 1.325-0.276 2.109 0.042 1.12 0.323 1.97 0.943 2.857 0.162 0.233 0.292 0.433 0.292 0.449 0 0.011-0.099 0.022-0.224 0.022-0.538 0-1.544 0.179-2.315 0.411-1.225 0.369-1.944 1.012-1.944 1.732 0 0.255 0.229 0.687 0.474 0.909 0.474 0.428 1.512 0.834 2.627 1.028 0.386 0.070 1.533 0.189 1.788 0.195 0.047 0 0.063 0.25 0.063 1.066 0 0.703 0.026 1.25 0.078 1.585 0.188 1.201 0.771 2.472 1.542 3.371l0.266 0.308-0.177 0.287c-0.26 0.406-0.36 0.714-0.39 1.174-0.079 1.104 0.609 2.083 1.939 2.771 2.532 1.315 6.468 0.801 7.944-1.039 0.719-0.899 0.803-1.926 0.234-2.857l-0.177-0.287 0.318-0.384c0.595-0.714 0.98-1.428 1.272-2.332 0.244-0.768 0.339-1.51 0.339-2.684 0-0.535 0.015-0.979 0.042-0.979 0.24-0.005 1.392-0.13 1.757-0.195 1.121-0.195 2.138-0.595 2.627-1.028 0.245-0.222 0.474-0.655 0.474-0.909 0-0.801-0.813-1.45-2.325-1.84-0.495-0.13-1.428-0.287-1.882-0.314l-0.214-0.017 0.235-0.324c0.292-0.395 0.657-1.163 0.797-1.667 0.396-1.455 0.151-3.149-0.699-4.767-0.354-0.671-0.599-0.828-0.886-0.563-0.109 0.104-0.156 0.244-0.26 0.753-0.323 1.618-0.923 2.9-1.798 3.846l-0.386 0.422h-8.246l-0.344-0.373c-0.854-0.941-1.475-2.272-1.798-3.896-0.104-0.509-0.151-0.649-0.26-0.752-0.172-0.157-0.339-0.152-0.531 0.016zM9.588 7.827c0.276 0.605 0.621 1.174 1.027 1.699l0.323 0.417-0.339 0.254c-0.318 0.243-0.615 0.59-0.845 0.986l-0.099 0.178-0.25-0.34c-0.855-1.18-1.069-2.624-0.615-4.124 0.219-0.724 0.214-0.719 0.412-0.092 0.094 0.303 0.271 0.763 0.386 1.023zM23.156 6.685c0.189 0.524 0.298 1.129 0.298 1.76 0 0.022-0 0.045-0 0.067l0-0.003c0 0.984-0.26 1.818-0.808 2.564l-0.245 0.335-0.182-0.308c-0.236-0.4-0.542-0.733-0.903-0.994l-0.010-0.007c-0.141-0.092-0.25-0.184-0.25-0.195 0-0.016 0.099-0.141 0.224-0.276 0.579-0.644 1.199-1.802 1.507-2.797 0.093-0.308 0.188-0.563 0.203-0.563s0.094 0.19 0.166 0.417zM20.493 10.641c0.579 0.243 1.131 0.941 1.22 1.531 0.047 0.325 0.156 0.531 0.297 0.563 0.063 0.010 0.495 0.049 0.959 0.081 1.647 0.109 2.945 0.46 3.498 0.941 0.255 0.227 0.229 0.417-0.078 0.65-0.615 0.465-1.944 0.817-3.3 0.877-0.897 0.038-1.084 0.064-1.204 0.189-0.089 0.092-0.099 0.189-0.099 1.169 0 1.326-0.068 2.089-0.235 2.705-0.234 0.838-0.698 1.732-1.24 2.365l-0.224 0.26-0.464-0.276c-0.495-0.307-1.069-0.547-1.681-0.69l-0.039-0.008c-1.976-0.471-4.16-0.184-5.629 0.741l-0.339 0.216-0.214-0.254c-0.292-0.341-0.751-1.071-0.933-1.482-0.401-0.931-0.521-1.688-0.521-3.355 0-1.618 0.083-1.499-1.116-1.564-1.533-0.081-2.701-0.357-3.436-0.822-0.542-0.346-0.453-0.655 0.303-1.018 0.724-0.352 1.72-0.563 3.101-0.649 1.074-0.070 1.1-0.086 1.199-0.606 0.146-0.785 0.724-1.434 1.455-1.64 0.182-0.054 1.204-0.065 4.332-0.060l4.092 0.011 0.297 0.125zM17.564 21.841c1.277 0.314 2.231 0.898 2.643 1.623 0.099 0.168 0.141 0.34 0.161 0.606 0.021 0.33 0.006 0.411-0.12 0.682-0.579 1.229-2.705 2.040-4.868 1.856-2.601-0.216-4.311-1.667-3.638-3.090 0.365-0.768 1.6-1.504 2.903-1.72 0.214-0.032 0.428-0.070 0.469-0.081s0.511-0.011 1.043 0c0.724 0.017 1.073 0.049 1.407 0.125z"></path>
<path d="M12.393 13.351c-0.323 0.109-0.542 0.25-0.834 0.541-0.256 0.243-0.276 0.53-0.063 0.703 0.198 0.162 0.386 0.141 0.625-0.070 0.303-0.265 0.538-0.374 0.829-0.374 0.292-0.005 0.516 0.098 0.829 0.374 0.239 0.211 0.427 0.232 0.625 0.070 0.104-0.087 0.136-0.157 0.136-0.32 0-0.167-0.036-0.243-0.219-0.427-0.516-0.519-1.283-0.719-1.929-0.498zM18.47 13.345c-0.333 0.125-0.761 0.406-0.932 0.617-0.167 0.206-0.173 0.438 0 0.612 0.172 0.184 0.38 0.173 0.63-0.033 0.615-0.509 1.074-0.525 1.642-0.054 0.146 0.125 0.312 0.222 0.365 0.222 0.255 0 0.464-0.227 0.464-0.498 0-0.173-0.433-0.573-0.824-0.763-0.433-0.211-0.948-0.249-1.345-0.102zM13.149 23.361c-0.151 0.146-0.204 0.356-0.125 0.525 0.058 0.134 0.146 0.189 0.506 0.287 0.162 0.043 0.23 0.097 0.287 0.232 0.073 0.179 0.078 0.179 0.48 0.195l0.401 0.017v-0.152c-0.005-0.216-0.125-0.53-0.282-0.746-0.182-0.25-0.5-0.412-0.86-0.444-0.245-0.021-0.307-0.011-0.406 0.087zM18.127 23.323c-0.26 0.070-0.636 0.422-0.74 0.698-0.052 0.145-0.087 0.313-0.099 0.487l-0 0.006c-0.010 0.232 0.010 0.287 0.136 0.4 0.307 0.271 0.714 0.060 0.714-0.373 0-0.211 0.156-0.357 0.433-0.411 0.292-0.054 0.396-0.173 0.401-0.449 0-0.362-0.323-0.503-0.845-0.357z"></path>
</symbol>
<symbol id="weight_icon" viewBox="0 0 32 32">
<path d="M14.688 4.874c-2.861 0.424-5.218 2.013-6.085 4.093-0.276 0.657-0.351 1.061-0.351 1.853 0.005 0.585 0.026 0.802 0.117 1.118 0.186 0.621 0.319 0.936 0.595 1.382l0.256 0.413-0.288 0.352c-2.271 2.826-2.521 6.8-0.627 9.931 0.707 1.175 1.862 2.329 2.989 3.002l0.335 0.196 9.175-0.077 0.218-0.119c0.761-0.429 1.835-1.387 2.436-2.163 0.87-1.13 1.486-2.5 1.737-3.993l0.007-0.053c0.085-0.533 0.085-2.112-0.005-2.614-0.271-1.547-0.851-2.872-1.766-4.047-0.175-0.223-0.314-0.409-0.314-0.424 0-0.010 0.096-0.171 0.207-0.352 0.255-0.406 0.467-0.875 0.612-1.373l0.010-0.040c0.143-0.518 0.143-1.811 0-2.329-0.511-1.837-2.042-3.369-4.207-4.212-0.607-0.238-1.644-0.492-2.314-0.574-0.622-0.072-2.159-0.058-2.739 0.031zM17.926 5.717c2.84 0.554 4.92 2.292 5.303 4.435 0.085 0.481 0.032 1.299-0.111 1.754-0.144 0.445-0.41 0.968-0.723 1.412-0.128 0.182-0.234 0.388-0.234 0.456s0.111 0.243 0.271 0.419c1.329 1.475 2.031 3.322 2.031 5.32-0.005 2.272-0.877 4.264-2.558 5.827-0.287 0.269-0.697 0.605-0.915 0.75l-0.399 0.269-8.792 0.036-0.34-0.218c-1.234-0.801-2.346-2.126-2.963-3.534-0.776-1.78-0.856-3.845-0.223-5.697 0.335-0.963 0.782-1.749 1.462-2.577 0.277-0.332 0.404-0.528 0.404-0.621 0-0.078-0.138-0.332-0.319-0.595-0.638-0.927-0.899-1.956-0.744-2.929 0.16-0.983 0.606-1.791 1.431-2.592 1.074-1.041 2.574-1.73 4.334-1.988 0.728-0.109 2.34-0.067 3.085 0.072z"></path>
<path d="M14.927 6.628c-2.18 0.357-3.888 1.568-4.446 3.157-0.128 0.357-0.149 0.497-0.149 1.009s0.021 0.652 0.149 1.009c0.079 0.228 0.228 0.544 0.33 0.704 0.276 0.445 0.399 0.461 0.947 0.129 0.788-0.485 1.705-0.857 2.683-1.062l0.056-0.010c0.659-0.134 1.925-0.186 2.643-0.103 1.122 0.129 2.34 0.532 3.313 1.107 0.276 0.16 0.559 0.294 0.627 0.294 0.404 0 0.92-1.164 0.92-2.069 0-2.013-1.925-3.736-4.653-4.166-0.58-0.093-1.862-0.093-2.42 0zM17.56 7.456c0.915 0.196 1.755 0.57 2.388 1.061 0.851 0.657 1.308 1.573 1.233 2.458-0.026 0.352-0.159 0.828-0.239 0.88-0.022 0.010-0.32-0.114-0.66-0.279-0.667-0.327-1.443-0.6-2.254-0.779l-0.070-0.013c-0.495-0.103-0.702-0.119-1.808-0.113-1.091 0-1.319 0.015-1.792 0.113-0.819 0.176-1.458 0.394-2.245 0.766-0.792 0.378-0.75 0.383-0.893-0.083-0.186-0.605-0.069-1.407 0.292-2.013 0.192-0.321 0.718-0.854 1.101-1.117 0.729-0.502 1.367-0.73 2.739-0.979 0.282-0.051 1.846 0.021 2.207 0.099zM16.693 14.131c-0.149 0.187-0.149 0.363 0.005 0.513 0.101 0.099 0.202 0.124 0.57 0.15 0.745 0.054 1.428 0.274 2.027 0.623l-0.022-0.012c0.436 0.259 1.101 0.885 1.399 1.335 0.442 0.646 0.744 1.573 0.744 2.257 0 0.238 0.022 0.31 0.133 0.413 0.17 0.171 0.394 0.171 0.559 0 0.117-0.119 0.122-0.15 0.090-0.657-0.149-2.505-2.292-4.595-4.856-4.736l-0.532-0.031-0.116 0.145z"></path>
</symbol>
<symbol id="icecream_icon" viewBox="0 0 32 32">
<path d="M16.078 4.557c0.058 0.154 0.174 0.901 0.174 1.133 0 0.574-0.212 1.109-0.602 1.528-0.323 0.347-0.646 0.54-1.422 0.853-0.863 0.352-1.219 0.564-1.624 0.964-0.41 0.41-0.651 0.858-0.737 1.383-0.096 0.574 0 0.978 0.294 1.21l0.149 0.116-0.236 0.149c-0.477 0.313-1.345 1.051-1.494 1.277-0.289 0.434-0.26 0.839 0.067 1.003l0.154 0.077-0.174 0.164c-0.26 0.246-0.313 0.415-0.275 0.858 0.024 0.294 0.014 0.453-0.053 0.694-0.082 0.313-0.082 0.318 0.024 0.54 0.106 0.217 0.405 0.492 0.675 0.607 0.13 0.058 0.135 0.077 0.164 0.521 0.014 0.256 0.039 1.070 0.058 1.812 0.014 0.742 0.048 1.422 0.077 1.504 0.024 0.087 0.116 0.202 0.198 0.26 0.28 0.193 0.472 0.4 0.598 0.641 0.14 0.275 0.294 0.95 0.762 3.282l0.328 1.639 0.203 0.193c0.386 0.381 1.123 0.554 2.338 0.554 1.219 0 1.947-0.169 2.333-0.549l0.207-0.198 0.299-1.518c0.66-3.321 0.718-3.504 1.234-3.914 0.159-0.13 0.313-0.289 0.342-0.362 0.034-0.082 0.068-0.713 0.092-1.668 0.019-0.848 0.048-1.687 0.068-1.865l0.029-0.323 0.313-0.236c0.395-0.304 0.549-0.578 0.549-1.003-0.005-0.501-0.333-1.051-0.93-1.542l-0.284-0.231 0.14-0.198c0.583-0.805 0.217-1.918-0.868-2.661l-0.328-0.227 0.12-0.125c0.535-0.574 0.622-2.285 0.174-3.475-0.27-0.709-0.887-1.48-1.644-2.049-0.371-0.28-1.393-0.897-1.485-0.897-0.019 0-0.019 0.034-0.005 0.077zM17.466 6.239c0.256 0.251 0.564 0.593 0.684 0.766 0.718 1.003 0.901 2.261 0.468 3.186-0.174 0.376-0.694 0.935-1.176 1.268-0.737 0.511-2.396 1.369-3.552 1.841-1.861 0.757-2.94 0.901-3.066 0.405-0.048-0.188 0.092-0.337 0.684-0.733 0.535-0.366 2.935-2.15 2.979-2.222 0.014-0.019-0.231 0.092-0.54 0.246-1.046 0.53-1.542 0.429-1.518-0.308 0.014-0.535 0.4-1.142 0.935-1.489 0.135-0.087 0.554-0.28 0.94-0.434 1.268-0.511 1.653-0.771 2.082-1.412 0.256-0.381 0.535-1.085 0.554-1.383 0.005-0.106 0.024-0.188 0.039-0.188s0.231 0.207 0.487 0.458zM18.782 11.715c0.352 0.198 0.718 0.535 0.877 0.8 0.28 0.477 0.135 0.954-0.468 1.562-0.656 0.665-1.774 1.301-3.003 1.706-1.133 0.371-2.217 0.545-3.769 0.598l-0.964 0.034 0.627 0.039c0.81 0.053 2.376 0.005 2.984-0.092 1.615-0.256 2.988-0.766 3.972-1.47 0.222-0.159 0.453-0.289 0.516-0.289 0.159 0 0.853 0.665 0.993 0.945 0.077 0.159 0.096 0.275 0.082 0.429-0.072 0.641-0.853 0.983-2.738 1.21-2.304 0.275-5.317 0.005-6.604-0.588-0.607-0.28-0.709-0.439-0.554-0.863 0.048-0.135 0.058-0.294 0.039-0.521-0.024-0.299-0.019-0.337 0.087-0.448 0.241-0.26 0.646-0.41 2.13-0.786 0.521-0.135 1.229-0.347 1.567-0.472 0.819-0.299 2.357-1.075 3.070-1.552 0.67-0.443 0.766-0.463 1.157-0.241zM12.381 17.615c1.012 0.294 1.909 0.381 3.576 0.347 1.253-0.024 2.024-0.101 3.138-0.299 0.227-0.039 0.424-0.072 0.448-0.072 0.053 0 0.039 1.851-0.019 2.338-0.063 0.516-0.202 0.916-0.352 1.012-0.154 0.101-0.925 0.207-1.957 0.265-2.116 0.116-4.29 0-4.965-0.27-0.366-0.149-0.405-0.342-0.41-2.13 0-1.191 0.010-1.355 0.072-1.33 0.039 0.014 0.251 0.077 0.468 0.14zM13.523 21.712c0.347 0.043 0.723 0.087 0.839 0.101l0.207 0.024-0.183 0.202c-0.236 0.256-0.598 0.766-0.728 1.027-0.149 0.299-0.198 0.318-0.419 0.198l-0.188-0.106-0.106-0.656c-0.058-0.357-0.12-0.699-0.135-0.757-0.043-0.125-0.087-0.125 0.713-0.034zM18.662 21.659c0 0.010-0.024 0.135-0.048 0.275-0.029 0.145-0.149 0.93-0.27 1.75-0.246 1.711-0.41 2.516-0.559 2.786-0.207 0.361-0.704 0.574-1.509 0.641-0.313 0.024-1.258-0.039-1.311-0.087-0.039-0.043 0.791-1.070 0.921-1.138 0.12-0.068 0.154-0.058 0.564 0.154 0.477 0.251 0.718 0.289 0.718 0.13s-0.125-0.313-0.434-0.525c-0.284-0.202-0.386-0.318-0.386-0.453 0-0.039 0.14-0.255 0.308-0.482s0.415-0.588 0.54-0.805l0.236-0.39 0.217 0.029c0.439 0.063 0.554 0.058 0.54-0.039-0.010-0.048-0.092-0.188-0.183-0.304-0.092-0.12-0.164-0.241-0.164-0.265 0-0.092 0.448-0.935 0.593-1.113 0.125-0.154 0.227-0.231 0.227-0.164zM15.649 22.044c0.241 0.159 1.147 0.945 1.205 1.041 0.024 0.043-0.906 1.499-1.089 1.706-0.019 0.024-0.12-0.024-0.222-0.101-0.101-0.082-0.477-0.342-0.839-0.578l-0.651-0.429 0.39-0.66c0.694-1.162 0.68-1.142 0.829-1.142 0.077 0 0.246 0.072 0.376 0.164zM17.476 22.218c-0.169 0.207-0.308 0.337-0.366 0.337-0.125 0-0.328-0.111-0.67-0.362l-0.284-0.207 0.569-0.034c0.308-0.014 0.607-0.034 0.66-0.043 0.386-0.063 0.386-0.058 0.092 0.308zM13.832 24.536c0.443 0.174 1.195 0.583 1.412 0.766 0.154 0.125 0.154 0.135 0.092 0.289-0.039 0.087-0.169 0.318-0.299 0.516-0.125 0.193-0.27 0.434-0.323 0.535-0.154 0.299-0.202 0.323-0.521 0.236-0.342-0.101-0.525-0.275-0.622-0.588-0.13-0.439-0.337-1.677-0.313-1.87 0.010-0.072 0.212-0.029 0.574 0.116z"></path>
</symbol>
<symbol id="fcebook_icon" viewBox="0 0 32 32">
<path d="M20.446 15.982h-2.61v9.618h-3.955v-9.618h-1.881v-3.38h1.881v-2.187c0-1.564 0.739-4.014 3.99-4.014l2.929 0.012v3.281h-2.125c-0.349 0-0.839 0.175-0.839 0.921v1.989h2.955l-0.346 3.377z"></path>
</symbol>
<symbol id="git_icon" viewBox="0 0 32 32">
<path d="M16 6.588c-5.169 0-9.412 4.242-9.412 9.412 0 4.411 3.095 8.419 7.206 9.412v-3.114c-0.407 0.089-0.782 0.092-1.197-0.030-0.556-0.164-1.008-0.535-1.344-1.1-0.214-0.361-0.593-0.752-0.988-0.723l-0.097-1.099c0.855-0.073 1.595 0.521 2.034 1.259 0.195 0.328 0.419 0.52 0.708 0.605 0.278 0.082 0.578 0.043 0.926-0.080 0.088-0.698 0.407-0.959 0.648-1.326v-0.001c-2.451-0.366-3.428-1.666-3.816-2.693-0.514-1.363-0.238-3.066 0.671-4.142 0.018-0.021 0.050-0.076 0.037-0.114-0.417-1.258 0.091-2.299 0.11-2.41 0.481 0.142 0.559-0.143 2.089 0.786l0.264 0.159c0.111 0.066 0.076 0.028 0.186 0.020 0.639-0.173 1.312-0.269 1.975-0.278 0.668 0.009 1.337 0.104 2.002 0.285l0.086 0.009c-0.007-0.001 0.023-0.005 0.075-0.036 1.911-1.157 1.842-0.779 2.355-0.946 0.019 0.111 0.519 1.169 0.107 2.411-0.056 0.171 1.657 1.739 0.708 4.256-0.388 1.027-1.365 2.328-3.816 2.693v0.001c0.314 0.479 0.692 0.734 0.69 1.722v3.887c4.111-0.993 7.206-5 7.206-9.412 0-5.169-4.242-9.412-9.412-9.412v0z"></path>
</symbol>
<symbol id="telegram_icon" viewBox="0 0 32 32">
<path d="M12.867 18.375l-0.318 4.169c0.454 0 0.651-0.182 0.887-0.401l2.13-1.9 4.415 3.017c0.81 0.421 1.38 0.199 1.599-0.695l2.898-12.672 0.001-0.001c0.257-1.117-0.433-1.554-1.222-1.28l-17.032 6.086c-1.162 0.421-1.145 1.026-0.198 1.3l4.355 1.264 10.115-5.907c0.476-0.294 0.909-0.131 0.553 0.163l-8.182 6.857z"></path>
</symbol>
<symbol id="mobile_menu_icon" viewBox="0 0 32 32">
<path d="M26.733 15h-21.466c-0.7 0-1.267 0.425-1.267 0.95v0.1c0 0.525 0.567 0.95 1.267 0.95h21.466c0.7 0 1.267-0.425 1.267-0.95v-0.1c0-0.525-0.567-0.95-1.267-0.95zM26.733 21h-21.466c-0.7 0-1.267 0.425-1.267 0.95v0.1c0 0.525 0.567 0.95 1.267 0.95h21.466c0.7 0 1.267-0.425 1.267-0.95v-0.1c0-0.525-0.567-0.95-1.267-0.95zM26.733 9h-21.466c-0.7 0-1.267 0.425-1.267 0.95v0.1c0 0.525 0.567 0.95 1.267 0.95h21.466c0.7 0 1.267-0.425 1.267-0.95v-0.1c0-0.525-0.567-0.95-1.267-0.95z"></path>
</symbol>
<symbol id="button-arrow" viewBox="0 0 32 32">
<path d="M10.586 3.272c-0.375 0.375-0.586 0.884-0.586 1.414s0.211 1.039 0.586 1.414l9.9 9.9-9.9 9.9c-0.364 0.377-0.566 0.882-0.561 1.407s0.215 1.026 0.586 1.397c0.371 0.371 0.872 0.581 1.397 0.586s1.030-0.197 1.407-0.561l11.314-11.314c0.375-0.375 0.586-0.884 0.586-1.414s-0.211-1.039-0.586-1.414l-11.314-11.314c-0.375-0.375-0.884-0.586-1.414-0.586s-1.039 0.211-1.414 0.586v0z"></path>
</symbol>
<symbol id="icon-mobile-menu-close" viewBox="0 0 32 32">
      <path d="M23.884 6.706 16 14.59 8.116 6.706a.995.995 0 0 0-1.38.031 1 1 0 0 0-.031 1.38l7.88 7.884-7.882 7.882a1.002 1.002 0 0 0-.018 1.427.998.998 0 0 0 1.427-.015l7.886-7.882 7.884 7.884a1 1 0 0 0 1.38-.03 1 1 0 0 0 .03-1.38l-7.884-7.884 7.884-7.886a1.002 1.002 0 0 0 .018-1.427.998.998 0 0 0-1.427.015v.002z"/>
    </symbol>
    <symbol id="icon-mobile-menu-open" viewBox="0 0 32 32">
      <path d="M26.733 14.667H5.266c-.7 0-1.267.567-1.267 1.267v.133c0 .7.567 1.267 1.267 1.267h21.467c.7 0 1.267-.567 1.267-1.267v-.133c0-.7-.567-1.267-1.267-1.267zM26.733 21.333H5.266c-.7 0-1.267.567-1.267 1.267v.133c0 .7.567 1.267 1.267 1.267h21.467c.7 0 1.267-.567 1.267-1.267V22.6c0-.7-.567-1.267-1.267-1.267zM26.733 8H5.266c-.7 0-1.267.567-1.267 1.267V9.4c0 .7.567 1.267 1.267 1.267h21.467c.7 0 1.267-.567 1.267-1.267v-.133C28 8.567 27.433 8 26.733 8z"/>
    </symbol>
    <symbol id="icon-buy-now" viewBox="0 0 32 32">
      <path d="M10.586 3.272a2 2 0 0 0 0 2.828l9.9 9.9-9.9 9.9a1.998 1.998 0 0 0 .025 2.804 2.001 2.001 0 0 0 2.804.025l11.314-11.314a2 2 0 0 0 0-2.828L13.415 3.273a2 2 0 0 0-2.828 0z"/>
    </symbol>
    <symbol id="arrow-up2" viewBox="0 0 32 32">
<path d="M27.414 12.586l-10-10c-0.781-0.781-2.047-0.781-2.828 0l-10 10c-0.781 0.781-0.781 2.047 0 2.828s2.047 0.781 2.828 0l6.586-6.586v19.172c0 1.105 0.895 2 2 2s2-0.895 2-2v-19.172l6.586 6.586c0.39 0.39 0.902 0.586 1.414 0.586s1.024-0.195 1.414-0.586c0.781-0.781 0.781-2.047 0-2.828z"></path>
</symbol>

    
</defs>
</svg>
